<?xml version="1.0" standalone="no"?>
<!DOCTYPE svg PUBLIC "-//W3C//DTD SVG 20010904//EN"
 "http://www.w3.org/TR/2001/REC-SVG-20010904/DTD/svg10.dtd">
<svg version="1.0" xmlns="http://www.w3.org/2000/svg"
 width="300.000000pt" height="196.000000pt" viewBox="0 0 300.000000 196.000000"
 preserveAspectRatio="xMidYMid meet">
<metadata>
Created by potrace 1.10, written by Peter Selinger 2001-2011
</metadata>
<g transform="translate(0.000000,196.000000) scale(0.100000,-0.100000)"
fill="#000000" stroke="none">
<path d="M751 1259 c-117 -36 -191 -137 -191 -262 0 -186 187 -315 360 -249
l45 18 3 59 c4 67 15 87 46 83 37 -5 32 -49 -10 -91 -21 -20 -33 -37 -28 -37
19 0 73 65 94 113 74 167 -43 363 -223 373 -34 2 -77 -1 -96 -7z m69 -19 c0
-17 -3 -19 -19 -8 -21 13 -19 28 5 28 8 0 14 -9 14 -20z m110 -7 l35 -15 -35
-13 c-56 -21 -79 -18 -90 11 -6 14 -10 29 -10 34 0 12 53 2 100 -17z m-141 -8
c16 -8 31 -12 33 -9 3 2 5 -13 4 -33 -1 -35 -3 -38 -33 -41 -18 -2 -33 -7 -33
-12 0 -10 -40 -1 -57 13 -30 23 0 97 38 97 11 0 33 -7 48 -15z m-105 -32 c-4
-16 -15 -36 -25 -45 -18 -18 -49 -24 -49 -11 0 7 71 83 77 83 2 0 0 -12 -3
-27z m356 -53 c9 -14 21 -35 24 -47 7 -21 4 -23 -26 -23 -18 0 -53 9 -77 20
-24 11 -46 18 -48 16 -10 -10 79 -46 120 -48 l44 -3 -20 -42 c-12 -24 -28 -43
-36 -43 -24 1 -89 65 -105 105 -8 19 -12 35 -9 35 3 0 -1 8 -11 19 -23 26 -11
48 37 64 39 14 43 13 65 -7 13 -11 32 -32 42 -46z m-170 25 c0 -8 -7 -15 -15
-15 -8 0 -15 7 -15 15 0 8 7 15 15 15 8 0 15 -7 15 -15z m-177 -30 c8 -18 -11
-31 -25 -17 -11 11 -3 32 12 32 4 0 10 -7 13 -15z m198 -36 c11 -23 17 -39 12
-37 -60 28 -83 44 -83 60 0 13 8 18 25 18 19 0 30 -10 46 -41z m-81 12 c0 -27
-19 -36 -37 -18 -18 18 -9 37 18 37 12 0 19 -7 19 -19z m-150 -7 c8 -8 16 -31
19 -51 3 -20 13 -39 21 -41 13 -4 13 -3 2 11 -7 9 -12 32 -10 54 2 30 7 39 25
41 38 6 45 -27 16 -76 -19 -32 -30 -41 -44 -37 -14 5 -20 0 -25 -20 -3 -14 -2
-31 4 -38 11 -13 4 -137 -8 -137 -14 0 -49 46 -69 90 -22 49 -27 115 -11 169
14 51 54 68 80 35z m269 -98 c6 -17 14 -50 20 -73 8 -38 7 -44 -15 -58 -40
-26 -122 -55 -126 -44 -2 6 -12 11 -23 13 -10 1 -28 19 -38 40 -16 31 -17 41
-7 66 12 30 6 55 -11 44 -6 -3 -2 11 9 31 13 26 30 42 53 50 30 10 39 9 81
-13 34 -18 50 -34 57 -56z m140 -84 c-8 -29 -15 -39 -20 -30 -10 19 -5 68 12
103 l14 30 3 -29 c2 -16 -2 -49 -9 -74z m-81 13 c-2 -16 -7 -29 -12 -28 -8 2
-33 74 -36 102 0 3 11 -6 25 -19 19 -18 25 -33 23 -55z m-272 27 c-5 -13 -2
-12 9 2 8 11 15 15 15 9 0 -14 -18 -26 -43 -30 -20 -3 -32 19 -23 42 8 23 50
0 42 -23z m314 -22 c0 -21 -15 -27 -25 -10 -7 12 2 30 16 30 5 0 9 -9 9 -20z
m-297 -57 c29 -58 26 -73 -19 -73 -31 0 -34 3 -34 29 0 42 11 91 21 91 5 0 19
-21 32 -47z m222 -79 c-5 -30 -11 -35 -53 -48 -44 -13 -48 -12 -70 7 -12 11
-21 25 -19 31 2 6 35 26 73 46 77 39 83 36 69 -36z m-150 16 c9 -15 -14 -40
-31 -33 -22 8 -18 43 5 43 11 0 23 -5 26 -10z m-47 -37 c8 -8 20 -12 27 -9 7
2 21 -5 32 -16 18 -21 18 -21 -21 -14 -46 9 -116 35 -116 45 0 12 64 8 78 -6z"/>
<path d="M1240 1075 c0 -32 2 -35 30 -35 l30 0 0 -75 0 -75 30 0 30 0 0 74 0
75 33 3 c28 3 32 6 32 33 l0 30 -92 3 -93 3 0 -36z m175 0 c0 -15 -7 -19 -30
-20 l-30 0 -3 -77 c-3 -69 -5 -78 -22 -78 -17 0 -19 9 -22 78 -3 77 -3 77 -30
77 -23 -1 -28 4 -28 23 0 22 2 23 83 20 74 -3 82 -5 82 -23z"/>
<path d="M1462 1094 c-26 -18 -30 -75 -6 -95 14 -12 14 -14 -6 -21 -17 -6 -20
-13 -15 -30 13 -42 33 -53 91 -53 44 0 59 4 70 19 20 28 17 62 -8 86 l-22 20
22 0 c30 0 29 34 -3 65 -29 29 -88 34 -123 9z m101 -5 c25 -14 37 -28 37 -46
0 -16 -69 -17 -90 -2 -12 8 -9 10 13 6 15 -2 27 0 27 4 0 13 -47 11 -55 -1 -4
-6 11 -18 32 -26 51 -21 73 -42 73 -70 0 -53 -92 -73 -136 -29 -14 14 -22 30
-19 35 9 15 42 12 49 -5 7 -18 56 -20 56 -2 0 7 -22 23 -50 34 -44 19 -50 25
-50 52 0 51 60 77 113 50z m-33 -129 c12 -8 11 -10 -7 -10 -13 0 -23 5 -23 10
0 13 11 13 30 0z"/>
<path d="M1620 1000 l0 -110 29 0 c27 0 30 3 33 38 3 34 6 37 35 40 30 3 32 1
35 -35 3 -35 5 -38 33 -38 l30 0 0 105 0 105 -30 0 c-27 0 -30 -3 -33 -37 -3
-36 -5 -38 -38 -38 -33 0 -34 1 -34 40 0 38 -2 40 -30 40 l-30 0 0 -110z m50
60 l0 -40 45 0 45 0 0 41 c0 36 2 40 23 37 21 -3 22 -7 22 -98 0 -88 -1 -95
-20 -95 -16 0 -21 8 -23 38 -3 37 -4 37 -48 37 l-44 0 0 -40 c0 -33 -3 -40
-20 -40 -19 0 -20 7 -20 100 0 93 1 100 20 100 17 0 20 -7 20 -40z"/>
<path d="M1850 1108 c0 -2 -2 -51 -3 -111 l-2 -107 28 0 27 0 0 110 0 110 -25
0 c-14 0 -25 -1 -25 -2z"/>
<path d="M1920 1000 l0 -110 31 0 c28 0 31 3 25 23 -3 12 -6 37 -6 55 0 20 -4
31 -10 27 -6 -4 -10 5 -10 19 0 14 5 26 10 26 6 0 10 -6 10 -12 0 -7 12 -41
26 -75 34 -80 56 -84 79 -13 9 28 21 50 27 50 6 0 8 6 5 13 -3 8 -1 20 4 28 6
10 9 7 9 -13 0 -15 -4 -30 -10 -33 -5 -3 -10 -26 -10 -51 0 -43 1 -45 25 -42
26 3 26 4 28 111 l2 108 -29 -3 c-25 -3 -32 -11 -55 -70 -14 -36 -29 -69 -31
-72 -3 -3 -19 28 -34 69 -26 69 -31 75 -57 75 l-29 0 0 -110z"/>
<path d="M2227 1017 c-20 -52 -39 -101 -43 -110 -5 -14 0 -17 24 -17 23 0 31
5 36 25 5 21 12 25 46 25 34 0 41 -4 46 -25 5 -19 13 -25 35 -25 16 0 29 3 29
6 0 4 -19 54 -42 110 -38 94 -44 104 -68 104 -23 0 -29 -9 -63 -93z m83 -24
c0 -7 -9 -13 -21 -13 -15 0 -19 4 -15 16 3 9 6 23 6 32 1 15 3 14 15 -2 8 -11
15 -26 15 -33z"/>
</g>
</svg>
